PathFileType	4	(X/Y/Z)	Run_300 01
DataRate	CameraRate	NumFrames	NumMarkers	Units	OrigDataRate	OrigDataStartFrame	OrigNumFrames
120	120	6	41	mm	120	1	125
Frame#	Time	LASI			RASI			LPSI			RPSI			RTH1			RTH3			LTH1			LTH2			LTH3			RTB1			RTB2			RTB3			LTB1			LTB2			LTB3			RCAL			RTOE			RMT5			LCAL			LTOE			LMT5			LACR			RACR			CLAV			C7			RUA1			RUA2			RUA3			RLEL			RMEL			LUA1			LUA2			LUA3			LLEL			LMEL			RFAsuperior			RFAradius			RFAulna			LFAsuperior			LFAradius			LFAulna			
		X1	Y1	Z1	X2	Y2	Z2	X3	Y3	Z3	X4	Y4	Z4	X5	Y5	Z5	X6	Y6	Z6	X7	Y7	Z7	X8	Y8	Z8	X9	Y9	Z9	X10	Y10	Z10	X11	Y11	Z11	X12	Y12	Z12	X13	Y13	Z13	X14	Y14	Z14	X15	Y15	Z15	X16	Y16	Z16	X17	Y17	Z17	X18	Y18	Z18	X19	Y19	Z19	X20	Y20	Z20	X21	Y21	Z21	X22	Y22	Z22	X23	Y23	Z23	X24	Y24	Z24	X25	Y25	Z25	X26	Y26	Z26	X27	Y27	Z27	X28	Y28	Z28	X29	Y29	Z29	X30	Y30	Z30	X31	Y31	Z31	X32	Y32	Z32	X33	Y33	Z33	X34	Y34	Z34	X35	Y35	Z35	X36	Y36	Z36	X37	Y37	Z37	X38	Y38	Z38	X39	Y39	Z39	X40	Y40	Z40	X41	Y41	Z41	

1	0.5	937.957861	1034.81586	-405.325305	924.906982	1033.501819	-176.191131	777.384729	1077.546599	-346.175143	762.77466	1072.126351	-249.544051	890.959639	869.386875	-111.791329	982.66574	629.255992	-171.670634	854.331417	844.664384	-462.817098	863.684227	728.056159	-431.51644	758.323388	641.509618	-424.262432	1083.890978	419.712461	-243.43598	1058.6322	355.85839	-177.245658	1084.332746	297.484574	-247.03938	639.2203940000001	451.949358	-354.394304	548.497839	478.702925	-416.488965	474.681132	405.160516	-353.345485	1012.528101	102.467551	-249.134225	1210.969633	169.018332	-282.058395	1203.586711	136.318768	-190.610899	331.596596	459.188847	-339.776855	329.95204	252.146556	-327.381783	293.470013	268.576405	-409.309848	955.641979	1505.614897	-454.69305	846.357078	1501.046178	-87.07086	955.985842	1486.041651	-231.221281	844.536369	1546.932658	-296.364676	735.953859	1409.905958	-51.472409	683.073693	1428.157882	-102.460481	663.355111	1360.549271	-38.954719	602.456822	1315.038738	-33.400052	593.514601	1297.291327	-114.862715	908.657327	1388.433137	-535.285138	838.9964199999999	1353.297132	-553.921735	904.2800570000001	1305.011051	-566.481054	857.2869920000001	1235.025356	-597.1353779999999	789.708548	1235.405009	-538.980088	669.6093949999999	1206.849015	-20.334115	734.469576	1106.215301	-59.341916	680.459422	1079.272747	-24.417463	952.7545	1199.222956	-515.556818	995.75446	1214.840689	-397.625988	1022.040644	1161.095498	-431.908905	
2	0.508333	937.4857919999999	1028.786049	-405.135301	924.027644	1027.812591	-175.180592	776.727743	1070.146846	-346.560783	761.61684	1066.071407	-249.773721	888.987298	864.3632270000001	-112.433357	980.7181440000001	623.480067	-172.131031	857.9049690000001	837.135304	-463.095681	869.239549	721.012344	-433.547304	766.6981520000001	632.101587	-425.892644	1077.29593	411.501918	-243.901515	1049.6206	348.062936	-178.264681	1074.570982	289.38194	-247.974984	648.712861	446.976322	-356.838774	559.047788	477.953512	-418.299073	481.589902	409.270382	-354.452117	997.709379	97.726854	-251.174977	1197.31715	158.216118	-284.622254	1189.714382	124.353451	-193.460041	340.809364	470.96198	-338.868327	331.041108	263.747421	-331.651341	296.081	283.756252	-413.495882	954.25177	1499.2014	-454.963417	849.053571	1494.03193	-85.51562699999999	956.522695	1479.391337	-231.422104	844.84371	1541.064787	-295.449305	739.663583	1401.152181	-48.835734	685.674559	1419.539959	-98.42032500000001	667.854349	1350.839638	-35.567954	607.332883	1304.994241	-29.334035	597.27942	1287.833583	-110.659576	905.448437	1382.04569	-534.285898	835.0762590000001	1347.819557	-551.7857330000001	899.300399	1298.046308	-563.751905	851.1659110000001	1229.073834	-594.819698	784.6545170000001	1230.211209	-535.480483	675.422152	1197.180829	-17.545246	740.745952	1097.504835	-57.826712	687.323667	1069.88853	-22.551662	947.702256	1190.593687	-515.78629	993.741903	1203.601954	-398.615063	1017.810665	1149.908057	-434.22482	
3	0.516667	936.7499749999999	1022.040245	-405.090086	923.333922	1021.61524	-174.065991	776.085025	1062.182693	-347.080907	760.765803	1059.430734	-250.100995	887.388182	858.723136	-113.711283	978.017469	616.4725570000001	-172.101424	860.796343	829.178209	-463.631384	874.8009949999999	713.469227	-435.938888	775.300496	622.233432	-427.829281	1070.158704	402.119655	-244.00742	1039.320583	339.391314	-179.02997	1064.170143	280.263895	-248.583552	659.410572	442.129551	-359.171203	570.442802	476.576986	-420.4795	489.929406	412.684666	-355.959633	981.645713	94.87598800000001	-252.671033	1182.49433	143.907584	-288.176066	1174.647569	110.009033	-197.01745	351.675587	481.469966	-338.105425	334.467219	274.453151	-335.501889	301.43487	297.564789	-417.447053	952.461952	1492.105861	-455.273767	851.777462	1486.241763	-83.972892	956.96676	1472.105632	-231.756414	845.018546	1534.500559	-294.653892	743.627121	1391.535369	-46.068593	688.355283	1410.05346	-94.02498	672.624292	1340.298213	-31.875224	612.552993	1294.043473	-24.922337	601.160501	1277.433412	-106.022351	901.895267	1374.836214	-533.365903	830.864863	1341.56409	-549.67557	894.024357	1290.305965	-560.938677	844.714925	1222.492444	-592.486745	779.480286	1224.332225	-531.9559369999999	681.730325	1186.688933	-14.629263	747.523222	1088.086239	-56.407774	694.799047	1059.704791	-20.753598	942.310424	1181.203493	-516.187853	991.525334	1191.453697	-399.892355	1013.150144	1137.88461	-436.948167	
4	0.525	935.7793359999999	1014.601558	-405.15683	922.7251240000001	1015.01335	-173.079298	775.4182960000001	1053.725736	-347.643974	760.091021	1052.152342	-250.371816	886.147233	852.0411340000001	-115.09696	974.084064	608.3104039999999	-172.191827	862.940707	820.771164	-464.328429	880.513662	705.495381	-438.633533	784.084311	612.051518	-429.904015	1063.062799	391.99032	-244.215165	1028.63108	329.992789	-180.10784	1053.613011	270.366375	-249.586625	671.384427	437.467882	-361.161401	582.59731	474.657218	-422.882654	499.581614	415.305468	-357.921154	964.899541	94.183097	-254.230082	1167.099748	126.217773	-292.465551	1158.481722	94.324547	-200.915277	363.836139	490.655931	-337.640998	340.306664	284.124404	-338.955275	309.337157	309.759817	-421.124515	950.2048600000001	1484.415761	-455.722719	854.487571	1477.759275	-82.42457400000001	957.31656	1464.2643	-232.23936	845.030383	1527.265017	-293.941403	747.831402	1381.142837	-43.169145	691.113516	1399.732026	-89.31016700000001	677.6703639999999	1328.949296	-27.94599	618.1653229999999	1282.255235	-20.184049	605.340876	1266.050879	-101.074562	897.9001	1366.870678	-532.552266	826.2994210000001	1334.556332	-547.580915	888.405123	1281.851734	-558.058485	837.949175	1215.347588	-590.190633	774.106466	1217.885738	-528.452	688.582596	1175.466606	-11.634194	754.8091879999999	1078.033177	-55.145677	702.938015	1048.800235	-18.980071	936.577747	1171.131475	-516.816879	988.952439	1178.424138	-401.499594	1007.982521	1125.062395	-440.064825	
5	0.5333329999999999	934.617425	1006.526658	-405.207472	921.8925829999999	1008.012096	-172.54357	774.508856	1044.832929	-348.088368	759.229485	1044.285922	-250.466032	885.096892	844.321658	-115.802221	969.200003	599.706958	-172.93186	864.451252	811.871513	-464.949098	886.387261	697.172199	-441.543509	793.052039	601.649457	-431.936287	1056.465978	382.188618	-245.402006	1019.025768	320.61565	-182.23403	1043.077302	260.586906	-251.840435	684.628813	433.050373	-362.66451	595.520972	472.124638	-425.403443	510.479966	417.015425	-360.235512	947.538094	95.24867999999999	-256.358384	1151.079235	107.211546	-296.993913	1141.0555	79.683837	-204.551573	377.078304	498.494265	-337.615595	348.544412	292.603878	-342.042734	319.561078	320.151368	-424.470306	947.424271	1476.287917	-456.467447	857.177876	1468.678901	-80.81596999999999	957.626527	1456.011229	-232.868792	844.867922	1519.427544	-293.24581	752.2852789999999	1370.021601	-40.179015	693.965696	1388.576808	-84.30734099999999	682.993459	1316.776901	-23.903297	624.212169	1269.705855	-15.157075	609.956715	1253.691788	-95.891481	893.373389	1358.248808	-531.892098	821.319938	1326.839873	-545.527662	882.364617	1272.740242	-555.089142	830.87047	1207.717554	-587.970626	768.356706	1210.996288	-524.952726	696.005872	1163.615604	-8.617615000000001	762.6190309999999	1067.449723	-54.091443	711.7864510000001	1037.316882	-17.188898	930.4843080000001	1160.464203	-517.765543	985.890846	1164.548187	-403.581561	1002.259406	1111.488108	-443.567751	
6	0.541667	933.2504740000001	997.964574	-405.061032	920.442057	1000.620712	-172.63659	772.998459	1035.579412	-348.227012	757.85628	1036.034995	-250.338108	883.943139	836.243724	-115.250379	964.586128	591.861142	-174.322589	865.657948	802.676055	-465.248311	892.3002269999999	688.701981	-444.528707	802.296425	591.167116	-433.811294	1050.284723	374.111988	-248.447718	1011.748125	312.543789	-185.818485	1032.248591	252.34325	-255.724841	699.072989	428.950009	-363.633222	609.263557	468.867249	-428.002515	522.612297	417.719965	-362.7154	929.133195	97.277309	-259.105134	1133.680623	90.35106500000001	-301.174984	1122.01941	68.742518	-207.400772	391.340825	504.941301	-338.153526	359.053428	299.692524	-344.760086	331.873532	328.54059	-427.438263	944.10875	1467.939188	-457.603966	859.881442	1459.122065	-79.049559	958.004405	1447.586727	-233.603603	844.592307	1511.221707	-292.457405	757.044485	1358.174289	-37.198149	696.9697629999999	1376.572735	-79.005134	688.603606	1303.770573	-19.85932	630.729886	1256.478693	-9.897069999999999	615.018616	1240.477411	-90.44885499999999	888.24542	1349.147723	-531.418714	815.861635	1318.47598	-543.585762	875.83208	1263.054198	-552.045295	823.454974	1199.687951	-585.822645	762.1374039999999	1203.723104	-521.441063	704.0139799999999	1151.246935	-5.627049	770.98496	1056.485436	-53.273078	721.38215	1025.432855	-15.394988	923.958253	1149.248168	-519.1044910000001	982.250406	1149.890685	-406.315928	995.967362	1097.240571	-447.457906	
